<svg width="100" height="100" viewBox="0 0 100 100" fill="none" xmlns="http://www.w3.org/2000/svg">
  <!-- WiFi Signals -->
  <path d="M20 35c25-20 35-20 60 0" stroke="#4A90E2" stroke-width="8" stroke-linecap="round" fill="none"/>
  <path d="M30 45c15-12 25-12 40 0" stroke="#4A90E2" stroke-width="8" stroke-linecap="round" fill="none"/>
  
  <!-- House Base -->
  <path d="M15 85c0-8 8-15 15-15h40c8 0 15 7 15 15v10c0 3-2 5-5 5H20c-3 0-5-2-5-5V85z" fill="#4A90E2"/>
  
  <!-- House Roof -->
  <path d="M50 30L25 55h50L50 30z" fill="#4A90E2"/>
  <path d="M50 35L30 55h40L50 35z" fill="white"/>
  
  <!-- Door/Window -->
  <rect x="42" y="72" width="16" height="16" rx="3" fill="#4A90E2"/>
  
  <!-- Star -->
  <path d="M80 45l3 6 6 1-4 4 1 6-6-3-6 3 1-6-4-4 6-1 3-6z" fill="#4A90E2"/>
</svg> 